<svg width="40" height="40" viewBox="0 0 40 40" fill="none" xmlns="http://www.w3.org/2000/svg">
<path fill-rule="evenodd" clip-rule="evenodd" d="M32.3787 23H26.6458C26.7297 22.0107 26.7732 21.005 26.7732 20C26.7732 18.995 26.7297 17.9893 26.6458 17H32.3787C32.6128 17.9637 32.75 18.965 32.75 20C32.75 21.035 32.6128 22.0362 32.3787 23ZM24.2142 32.0195C25.2432 30.2645 25.9677 27.878 26.3765 25.25H31.6062C30.1752 28.4 27.503 30.8623 24.2142 32.0195ZM15.9418 25.25H24.101C23.3225 29.8407 21.5938 32.75 20 32.75C18.4228 32.75 16.7113 29.8407 15.9418 25.25ZM8.3945 25.25H13.6678C14.075 27.8848 14.7972 30.2772 15.8232 32.033C12.5173 30.8817 9.83075 28.412 8.3945 25.25ZM7.62125 17H13.4C13.3167 17.9893 13.2733 18.995 13.2733 20C13.2733 21.005 13.3167 22.0107 13.4 23H7.62125C7.388 22.0362 7.25 21.035 7.25 20C7.25 18.965 7.388 17.9637 7.62125 17ZM15.8232 7.967C14.7972 9.7235 14.075 12.1153 13.6678 14.75H8.3945C9.83075 11.588 12.5173 9.11825 15.8232 7.967ZM24.5233 20C24.5233 21.0485 24.473 22.0475 24.3875 23H15.6583C15.5735 22.0475 15.5233 21.0485 15.5233 20C15.5233 18.9515 15.5735 17.9525 15.6583 17H24.3875C24.473 17.9525 24.5233 18.9515 24.5233 20ZM24.101 14.75H15.9418C16.7113 10.1593 18.4228 7.25 20 7.25C21.5938 7.25 23.3225 10.1593 24.101 14.75ZM31.6062 14.75H26.3765C25.9677 12.122 25.2432 9.7355 24.2142 7.9805C27.503 9.13775 30.1752 11.6 31.6062 14.75ZM20 5C11.729 5 5 11.729 5 20C5 28.271 11.729 35 20 35C28.2703 35 35 28.271 35 20C35 11.729 28.2703 5 20 5Z" fill="#5F6369"/>
</svg>
