<svg width="40" height="40" viewBox="0 0 40 40" fill="none" xmlns="http://www.w3.org/2000/svg">
<path d="M36.7458 31.5047C36.6137 31.2641 36.4194 31.0634 36.1833 30.9234L34.4912 29.9078C33.8307 29.5107 33.2842 28.9495 32.9049 28.2787C32.5255 27.6079 32.3262 26.8503 32.3263 26.0797V16.9266C32.3247 14.2714 31.4633 11.6882 29.8709 9.56359C28.2784 7.43895 26.0407 5.8872 23.4927 5.14063C23.3825 5.10925 23.2855 5.04306 23.216 4.95195C23.1466 4.86084 23.1086 4.7497 23.1076 4.63516C23.1076 3.82023 22.7838 3.0387 22.2076 2.46246C21.6313 1.88623 20.8498 1.5625 20.0349 1.5625C19.22 1.5625 18.4384 1.88623 17.8622 2.46246C17.2859 3.0387 16.9622 3.82023 16.9622 4.63516C16.9611 4.74966 16.923 4.86074 16.8536 4.95183C16.7841 5.04291 16.6872 5.10914 16.577 5.14063C14.0291 5.8872 11.7913 7.43895 10.1989 9.56359C8.60648 11.6882 7.74506 14.2714 7.74347 16.9266V26.0781C7.74354 26.8487 7.54422 27.6063 7.16488 28.2771C6.78553 28.9479 6.23907 29.5091 5.57863 29.9062L3.88645 30.9219C3.59427 31.0963 3.36704 31.3614 3.23929 31.6768C3.11153 31.9923 3.09024 32.3407 3.17865 32.6694C3.26706 32.998 3.46033 33.2887 3.72909 33.4974C3.99786 33.7062 4.32743 33.8215 4.6677 33.8258H35.3973C35.6667 33.8194 35.9299 33.744 36.1618 33.6066C36.3937 33.4694 36.5863 33.2748 36.7214 33.0417C36.8566 32.8086 36.9295 32.5447 36.9334 32.2753C36.9373 32.0059 36.8719 31.74 36.7435 31.5031L36.7458 31.5047Z" fill="#5F6369"/>
<path d="M17.3787 37.5875C17.9588 37.9978 18.6261 38.2681 19.3283 38.3769C20.0305 38.4858 20.7484 38.4303 21.4255 38.2148C22.1026 37.9993 22.7205 37.6297 23.2306 37.135C23.7407 36.6404 24.1292 36.0342 24.3654 35.364H15.7021C16.0184 36.2603 16.6039 37.0369 17.3787 37.5875Z" fill="#5F6369"/>
</svg>
