<svg width="52" height="56" viewBox="0 0 52 56" fill="none" xmlns="http://www.w3.org/2000/svg">
<path d="M51.1187 45.257C50.9205 44.8961 50.6292 44.595 50.2749 44.3852L47.7368 42.8617C46.7461 42.2661 45.9263 41.4242 45.3574 40.418C44.7883 39.4118 44.4894 38.2755 44.4895 37.1195V23.3898C44.487 19.4071 43.1949 15.5323 40.8063 12.3454C38.4177 9.15842 35.0611 6.83081 31.2391 5.71094C31.0737 5.66388 30.9282 5.56459 30.824 5.42792C30.72 5.29125 30.6629 5.12456 30.6614 4.95273C30.6614 3.73035 30.1757 2.55804 29.3114 1.69369C28.447 0.82934 27.2746 0.34375 26.0524 0.34375C24.83 0.34375 23.6577 0.82934 22.7933 1.69369C21.9289 2.55804 21.4433 3.73035 21.4433 4.95273C21.4416 5.1245 21.3845 5.29111 21.2804 5.42774C21.1762 5.56437 21.0308 5.66371 20.8655 5.71094C17.0436 6.83081 13.687 9.15842 11.2984 12.3454C8.90973 15.5323 7.61758 19.4071 7.6152 23.3898V37.1172C7.61531 38.2731 7.31633 39.4095 6.74731 40.4157C6.1783 41.4218 5.35861 42.2637 4.36795 42.8594L1.82967 44.3828C1.39141 44.6445 1.05056 45.0421 0.858935 45.5152C0.667299 45.9884 0.635365 46.5111 0.767975 47.0041C0.900596 47.497 1.19049 47.9331 1.59364 48.2461C1.99679 48.5593 2.49115 48.7322 3.00154 48.7387H49.096C49.5001 48.7291 49.8949 48.616 50.2427 48.41C50.5905 48.2041 50.8795 47.9123 51.0821 47.5626C51.2848 47.2129 51.3943 46.817 51.4 46.413C51.4059 46.0089 51.3078 45.61 51.1153 45.2547L51.1187 45.257Z" fill="#323232"/>
<path d="M22.0681 54.3812C22.9382 54.9968 23.9392 55.4022 24.9925 55.5654C26.0458 55.7288 27.1226 55.6455 28.1383 55.3223C29.1539 54.999 30.0808 54.4446 30.8459 53.7026C31.6111 52.9607 32.1938 52.0513 32.548 51.0461H19.5532C20.0276 52.3905 20.9059 53.5554 22.0681 54.3812Z" fill="#323232"/>
</svg>
