<svg width="112" height="100" viewBox="0 0 112 100" fill="none" xmlns="http://www.w3.org/2000/svg">
<path opacity="0.996" fill-rule="evenodd" clip-rule="evenodd" d="M54.6816 0.232391C55.502 0.232391 56.3222 0.232391 57.1426 0.232391C57.392 0.399591 57.6849 0.458092 58.0215 0.408192C58.7422 0.529792 59.4453 0.705593 60.1309 0.935493C60.3652 0.994093 60.5997 1.05279 60.834 1.11129C61.4192 1.34529 62.005 1.57959 62.5918 1.81449C62.6749 2.06159 62.8507 2.17879 63.1191 2.16599C63.6424 2.51179 64.1698 2.86329 64.7012 3.22069C64.8184 3.45499 64.9942 3.63079 65.2285 3.74799C65.6973 4.09959 66.107 4.50969 66.459 4.97849C66.576 5.21279 66.752 5.38859 66.986 5.50589C67.276 6.02849 67.627 6.49729 68.041 6.91209C68.069 7.20269 68.186 7.43699 68.393 7.61519C68.661 8.18629 68.895 8.77219 69.096 9.37299C69.096 9.43159 69.096 9.49029 69.096 9.54879C67.517 11.127 65.8764 12.6505 64.1738 14.1191C64.2269 13.365 64.1098 12.6619 63.8223 12.0098C63.8639 11.7828 63.8054 11.6071 63.6465 11.4824C63.4457 10.8466 63.1529 10.2607 62.7676 9.72459C62.6503 9.49029 62.4746 9.31449 62.2402 9.19729C62.0098 8.61529 61.5995 8.20499 61.0098 7.96679C60.8925 7.73249 60.7167 7.55669 60.4824 7.43949C59.8965 7.14639 59.3105 6.85359 58.7246 6.56049C58.5123 6.43149 58.2779 6.37299 58.0215 6.38479C57.2807 6.17349 56.5189 6.05619 55.7363 6.03319C55.3733 6.03619 55.0218 6.09469 54.6816 6.20899C53.4341 6.42339 52.2624 6.83369 51.166 7.43949C48.674 7.49729 46.213 7.43869 43.7832 7.26369C43.9004 6.97059 44.0175 6.67779 44.1348 6.38479C45.1895 4.97849 46.4199 3.74799 47.8262 2.69339C48.4678 2.34669 49.1122 1.99519 49.7598 1.63869C49.877 1.63869 49.9355 1.58009 49.9355 1.46289C51.1463 1.03979 52.3768 0.688192 53.627 0.408192C53.92 0.408192 54.2128 0.408192 54.5059 0.408192C54.6231 0.408192 54.6816 0.349691 54.6816 0.232391Z" fill="#00843D"/>
<path fill-rule="evenodd" clip-rule="evenodd" d="M43.7832 7.26369C46.213 7.43869 48.674 7.49729 51.166 7.43949C49.2774 8.92229 48.1055 10.8559 47.6504 13.2402C47.6504 13.5333 47.6504 13.8261 47.6504 14.1191C47.4922 15.0459 47.4337 15.9833 47.4746 16.9316C47.4746 17.2247 47.4746 17.5175 47.4746 17.8105C45.5996 17.8105 43.7247 17.8105 41.8496 17.8105C41.8496 17.4004 41.8496 16.9902 41.8496 16.5801C41.8496 16.2871 41.8496 15.9942 41.8496 15.7012C41.8496 14.8223 41.8496 13.9434 41.8496 13.0645C41.8496 12.7714 41.8496 12.4786 41.8496 12.1855C42.1512 10.8623 42.5613 9.57309 43.0801 8.31839C43.3167 7.96029 43.5512 7.60869 43.7832 7.26369Z" fill="#00843D"/>
<path opacity="0.022" fill-rule="evenodd" clip-rule="evenodd" d="M64.3496 21.3262C64.3496 21.6192 64.3496 21.9121 64.3496 22.2051C64.1153 22.3223 63.9395 22.4981 63.8223 22.7324C63.7637 22.7324 63.705 22.7324 63.6465 22.7324C63.4122 22.7324 63.1777 22.7324 62.9434 22.7324C63.3535 22.2051 63.8223 21.7363 64.3496 21.3262Z" fill="#00843D"/>
<path opacity="0.991" fill-rule="evenodd" clip-rule="evenodd" d="M41.8496 17.8105C43.7247 17.8105 45.5996 17.8105 47.4746 17.8105C47.4746 18.6895 47.4746 19.5684 47.4746 20.4473C47.4746 20.7403 47.4746 21.0331 47.4746 21.3262C47.4746 21.795 47.4746 22.2636 47.4746 22.7324C47.8847 22.7324 48.295 22.7324 48.7051 22.7324C46.2012 25.3243 43.6524 27.9023 41.0586 30.4668C40.2827 30.3256 39.4917 30.2378 38.6855 30.2031C40.6828 28.1472 42.7336 26.1549 44.8379 24.2266C44.4278 24.1093 44.0175 24.1093 43.6074 24.2266C41.6497 26.3602 39.6283 28.4402 37.543 30.4668C36.7671 30.3256 35.9761 30.2378 35.1699 30.2031C36.4004 28.9727 37.6309 27.7422 38.8613 26.5117C38.5683 26.3945 38.2754 26.3945 37.9824 26.5117C37.0689 27.5195 36.1313 28.3692 35.1699 29.0605C36.306 26.2841 38.2981 24.4092 41.1465 23.4355C41.6174 23.4312 41.8517 23.1968 41.8496 22.7324C41.8496 21.8535 41.8496 20.9746 41.8496 20.0957C41.8496 19.8027 41.8496 19.5098 41.8496 19.2168C41.8496 18.748 41.8496 18.2794 41.8496 17.8105Z" fill="#00843D"/>
<path opacity="0.996" fill-rule="evenodd" clip-rule="evenodd" d="M69.096 9.5488C69.213 9.7246 69.33 9.90039 69.447 10.0762C69.573 10.8122 69.748 11.5153 69.975 12.1855C69.975 12.4199 69.975 12.6544 69.975 12.8887C69.975 13.7676 69.975 14.6465 69.975 15.5254C69.975 15.8184 69.975 16.1113 69.975 16.4043C69.975 17.2832 69.975 18.1621 69.975 19.041C69.975 19.334 69.975 19.6269 69.975 19.9199C69.975 20.7988 69.975 21.6777 69.975 22.5566C69.914 22.9052 70.032 23.1397 70.326 23.2598C70.911 23.4937 71.497 23.728 72.084 23.9629C72.084 24.0214 72.084 24.0801 72.084 24.1387C72.029 24.3563 71.942 24.3563 71.82 24.1387C71.293 24.7246 70.766 25.3106 70.238 25.8965C69.462 25.7553 68.671 25.6674 67.865 25.6328C68.426 25.2053 68.953 24.7365 69.447 24.2266C69.037 24.1093 68.627 24.1093 68.217 24.2266C67.739 24.7998 67.241 25.3565 66.723 25.8965C65.9468 25.7553 65.1557 25.6674 64.3496 25.6328C64.91 25.2053 65.4373 24.7365 65.9316 24.2266C65.5215 24.1093 65.1113 24.1093 64.7012 24.2266C64.2237 24.7998 63.7258 25.3565 63.207 25.8965C62.4311 25.7553 61.6401 25.6674 60.834 25.6328C61.9291 24.8017 62.8665 23.8349 63.6465 22.7324C63.705 22.7324 63.7637 22.7324 63.8223 22.7324C63.998 22.7324 64.1738 22.7324 64.3496 22.7324C64.3496 22.5566 64.3496 22.3809 64.3496 22.2051C64.3496 21.9121 64.3496 21.6192 64.3496 21.3262C64.3496 20.4473 64.3496 19.5684 64.3496 18.6895C64.3496 18.3964 64.3496 18.1036 64.3496 17.8105C64.3496 16.9316 64.3496 16.0527 64.3496 15.1738C64.3995 14.8372 64.341 14.5444 64.1738 14.2949C64.1738 14.2364 64.1738 14.1777 64.1738 14.1191C65.8764 12.6505 67.517 11.127 69.096 9.5488Z" fill="#00843D"/>
<path opacity="0.022" fill-rule="evenodd" clip-rule="evenodd" d="M41.8496 22.7324C41.8517 23.1968 41.6174 23.4312 41.1465 23.4355C41.3223 23.1425 41.5566 22.9082 41.8496 22.7324Z" fill="#00843D"/>
<path opacity="0.997" fill-rule="evenodd" clip-rule="evenodd" d="M48.705 22.7324C48.7636 22.7324 48.8223 22.7324 48.8808 22.7324C49.1738 22.7324 49.4667 22.7324 49.7597 22.7324C50.6386 22.7324 51.5175 22.7324 52.3964 22.7324C52.6895 22.7324 52.9823 22.7324 53.2753 22.7324C54.1542 22.7324 55.0332 22.7324 55.9121 22.7324C56.2051 22.7324 56.4979 22.7324 56.791 22.7324C57.6699 22.7324 58.5488 22.7324 59.4277 22.7324C59.7207 22.7324 60.0136 22.7324 60.3066 22.7324C61.1855 22.7324 62.0644 22.7324 62.9433 22.7324C63.1776 22.7324 63.4121 22.7324 63.6464 22.7324C62.8665 23.8349 61.9291 24.8017 60.8339 25.6328C61.6401 25.6674 62.4311 25.7553 63.207 25.8965C63.7257 25.3565 64.2237 24.7998 64.7011 24.2266C65.1112 24.1093 65.5215 24.1093 65.9316 24.2266C65.4373 24.7365 64.9099 25.2053 64.3496 25.6328C65.1557 25.6674 65.9467 25.7553 66.723 25.8965C67.241 25.3565 67.739 24.7998 68.217 24.2266C68.627 24.1093 69.037 24.1093 69.447 24.2266C68.953 24.7365 68.426 25.2053 67.865 25.6328C68.671 25.6674 69.462 25.7553 70.238 25.8965C70.766 25.3106 71.293 24.7246 71.82 24.1387C71.942 24.3563 72.029 24.3563 72.084 24.1387C72.318 24.1972 72.553 24.2559 72.787 24.3145C73.205 24.7325 73.674 25.084 74.193 25.3691C74.311 25.6035 74.486 25.7792 74.721 25.8965C75.005 26.415 75.356 26.8837 75.775 27.3027C75.851 27.5154 75.969 27.6912 76.127 27.8301C76.426 28.4276 76.719 29.0134 77.006 29.5879C76.994 29.8444 77.053 30.0787 77.182 30.291C77.389 31.0369 77.506 31.7985 77.533 32.5762C77.533 32.8692 77.533 33.1621 77.533 33.4551C77.533 33.7481 77.533 34.041 77.533 34.334C76.962 34.466 76.406 34.6418 75.863 34.8613C75.22 34.9167 75.132 34.7703 75.6 34.4219C74.838 34.3046 74.076 34.3046 73.314 34.4219C72.869 34.8464 72.342 34.9635 71.732 34.7734C71.85 34.6562 71.967 34.5391 72.084 34.4219C71.322 34.3046 70.56 34.3046 69.799 34.4219C69.354 34.8464 68.826 34.9635 68.217 34.7734C68.334 34.6562 68.451 34.5391 68.568 34.4219C67.807 34.3046 67.045 34.3046 66.283 34.4219C65.8381 34.8464 65.3107 34.9635 64.7011 34.7734C64.8184 34.6562 64.9354 34.5391 65.0527 34.4219C64.291 34.3046 63.5292 34.3046 62.7675 34.4219C62.5358 34.7573 62.2135 34.9039 61.8007 34.8613C60.4825 34.6495 59.1642 34.6495 57.8457 34.8613C57.7871 34.8613 57.7284 34.8613 57.6699 34.8613C57.1077 34.4199 56.4633 34.1854 55.7363 34.1582C55.2393 34.2651 54.7707 34.4409 54.33 34.6855C53.2996 34.6565 52.2741 34.7153 51.2539 34.8613C50.6105 34.9167 50.5226 34.7703 50.9902 34.4219C50.2285 34.3046 49.4667 34.3046 48.705 34.4219C48.26 34.8464 47.7326 34.9635 47.123 34.7734C47.2402 34.6562 47.3573 34.5391 47.4746 34.4219C46.7129 34.3046 45.9511 34.3046 45.1894 34.4219C44.7443 34.8464 44.217 34.9635 43.6074 34.7734C43.7246 34.6562 43.8417 34.5391 43.9589 34.4219C43.1973 34.3046 42.4354 34.3046 41.6738 34.4219C41.2287 34.8464 40.7014 34.9635 40.0917 34.7734C40.209 34.6562 40.3261 34.5391 40.4433 34.4219C39.6817 34.3046 38.9198 34.3046 38.1582 34.4219C38.0409 34.5391 37.9238 34.6562 37.8066 34.7734C37.3378 34.832 36.8692 34.8907 36.4003 34.9492C35.7202 35.6588 35.0171 36.3326 34.291 36.9707C34.291 36.209 34.291 35.4472 34.291 34.6855C34.291 34.3925 34.291 34.0997 34.291 33.8066C34.26 32.8609 34.3187 31.9235 34.4667 30.9941C34.584 30.584 34.7011 30.1738 34.8183 29.7637C34.9043 29.5009 35.0213 29.2664 35.1699 29.0605C36.1312 28.3692 37.0688 27.5195 37.9824 26.5117C38.2754 26.3945 38.5683 26.3945 38.8613 26.5117C37.6308 27.7422 36.4003 28.9727 35.1699 30.2031C35.976 30.2378 36.767 30.3256 37.5429 30.4668C39.6282 28.4402 41.6497 26.3602 43.6074 24.2266C44.0175 24.1093 44.4277 24.1093 44.8378 24.2266C42.7336 26.1549 40.6827 28.1472 38.6855 30.2031C39.4916 30.2378 40.2826 30.3256 41.0585 30.4668C43.6524 27.9023 46.2012 25.3243 48.705 22.7324Z" fill="#00843D"/>
<path opacity="0.022" fill-rule="evenodd" clip-rule="evenodd" d="M55.7363 34.1582C54.9747 35.0371 54.1543 35.8575 53.2754 36.6191C53.2529 36.2403 53.3408 35.8888 53.5391 35.5645C53.8391 35.2943 54.1028 35.0013 54.3301 34.6855C54.7708 34.4409 55.2394 34.2651 55.7363 34.1582Z" fill="#00843D"/>
<path fill-rule="evenodd" clip-rule="evenodd" d="M54.3301 34.6855C54.1028 35.0012 53.8391 35.2943 53.5391 35.5645C53.3408 35.8888 53.2529 36.2403 53.2754 36.6191C53.1172 37.5459 53.0587 38.4833 53.0996 39.4316C53.0996 39.4902 53.0996 39.5489 53.0996 39.6074C52.1098 40.5092 51.143 41.4468 50.1992 42.4199C49.3646 42.2204 48.5151 42.1911 47.6504 42.332C47.2953 42.9851 46.768 43.2194 46.0684 43.0352C46.277 42.856 46.4528 42.6509 46.5957 42.4199C45.8405 42.2744 45.0789 42.1865 44.3105 42.1562C45.3652 41.1016 46.4199 40.0469 47.4746 38.9922C47.1816 38.8749 46.8887 38.8749 46.5957 38.9922C45.4531 40.1348 44.3105 41.2773 43.168 42.4199C42.3921 42.2788 41.6011 42.1909 40.7949 42.1562C41.8496 41.1016 42.9043 40.0469 43.959 38.9922C43.666 38.8749 43.3731 38.8749 43.0801 38.9922C41.9375 40.1348 40.7949 41.2773 39.6523 42.4199C38.8764 42.2788 38.0854 42.1909 37.2793 42.1562C38.334 41.1016 39.3887 40.0469 40.4434 38.9922C40.1503 38.8749 39.8575 38.8749 39.5645 38.9922C38.4219 40.1348 37.2793 41.2773 36.1367 42.4199C35.5401 42.2519 34.9249 42.1933 34.291 42.2441C34.291 42.0684 34.291 41.8926 34.291 41.7168C34.291 41.4238 34.291 41.1309 34.291 40.8379C34.291 39.959 34.291 39.0801 34.291 38.2012C34.291 37.9081 34.291 37.6153 34.291 37.3223C34.291 37.205 34.291 37.0879 34.291 36.9707C35.0172 36.3326 35.7203 35.6588 36.4004 34.9492C36.8692 34.8907 37.3378 34.832 37.8066 34.7734C37.9239 34.6562 38.041 34.5391 38.1582 34.4219C38.9199 34.3046 39.6817 34.3046 40.4434 34.4219C40.3261 34.5391 40.209 34.6562 40.0918 34.7734C40.7014 34.9635 41.2287 34.8464 41.6738 34.4219C42.4355 34.3046 43.1973 34.3046 43.959 34.4219C43.8417 34.5391 43.7247 34.6562 43.6074 34.7734C44.217 34.9635 44.7444 34.8464 45.1895 34.4219C45.9511 34.3046 46.7129 34.3046 47.4746 34.4219C47.3574 34.5391 47.2403 34.6562 47.123 34.7734C47.7327 34.9635 48.26 34.8464 48.7051 34.4219C49.4667 34.3046 50.2286 34.3046 50.9902 34.4219C50.5227 34.7703 50.6105 34.9167 51.2539 34.8613C52.2741 34.7153 53.2996 34.6565 54.3301 34.6855Z" fill="#00843D"/>
<path fill-rule="evenodd" clip-rule="evenodd" d="M77.533 34.334C77.533 34.9199 77.533 35.5059 77.533 36.0918C77.533 36.3848 77.533 36.6777 77.533 36.9707C77.533 37.8496 77.533 38.7285 77.533 39.6074C77.533 39.666 77.533 39.7247 77.533 39.7832C76.602 40.6264 75.694 41.5053 74.809 42.4199C73.974 42.2204 73.124 42.1911 72.26 42.332C71.905 42.9851 71.377 43.2194 70.678 43.0352C70.886 42.856 71.062 42.6509 71.205 42.4199C70.391 42.2157 69.571 42.1865 68.744 42.332C68.389 42.9851 67.862 43.2194 67.162 43.0352C67.371 42.856 67.547 42.6509 67.689 42.4199C66.934 42.2744 66.173 42.1865 65.4043 42.1562C66.459 41.1016 67.514 40.0469 68.568 38.9922C68.275 38.8749 67.982 38.8749 67.689 38.9922C66.547 40.1348 65.4043 41.2773 64.2617 42.4199C63.4858 42.2788 62.6948 42.1909 61.8887 42.1562C62.9434 41.1016 63.998 40.0469 65.0527 38.9922C64.7597 38.8749 64.4669 38.8749 64.1738 38.9922C63.0312 40.1348 61.8887 41.2773 60.7461 42.4199C60.0904 42.2512 59.4167 42.1926 58.7246 42.2441C58.7246 42.1269 58.7246 42.0098 58.7246 41.8926C58.7246 41.5995 58.7246 41.3067 58.7246 41.0137C58.7246 40.1348 58.7246 39.2559 58.7246 38.377C58.7246 38.0839 58.7246 37.7911 58.7246 37.498C58.6485 37.0294 58.5606 36.5608 58.4609 36.0918C58.4258 35.7719 58.2792 35.5376 58.0215 35.3887C58.0115 35.1937 57.9529 35.0179 57.8457 34.8613C59.1642 34.6495 60.4826 34.6495 61.8008 34.8613C62.2135 34.9039 62.5359 34.7573 62.7676 34.4219C63.5292 34.3046 64.2911 34.3046 65.0527 34.4219C64.9355 34.5391 64.8184 34.6562 64.7012 34.7734C65.3108 34.9635 65.8381 34.8464 66.283 34.4219C67.045 34.3046 67.807 34.3046 68.568 34.4219C68.451 34.5391 68.334 34.6562 68.217 34.7734C68.826 34.9635 69.354 34.8464 69.799 34.4219C70.56 34.3046 71.322 34.3046 72.084 34.4219C71.967 34.5391 71.85 34.6562 71.732 34.7734C72.342 34.9635 72.869 34.8464 73.314 34.4219C74.076 34.3046 74.838 34.3046 75.6 34.4219C75.132 34.7703 75.22 34.9167 75.863 34.8613C76.406 34.6418 76.962 34.466 77.533 34.334Z" fill="#00843D"/>
<path opacity="0.997" fill-rule="evenodd" clip-rule="evenodd" d="M53.0996 39.6074C53.0996 39.8417 53.0996 40.0762 53.0996 40.3105C53.0996 41.1895 53.0996 42.0684 53.0996 42.9473C53.0996 43.2403 53.0996 43.5331 53.0996 43.8262C53.1757 44.2948 53.2636 44.7634 53.3633 45.2324C53.3984 45.5523 53.545 45.7867 53.8027 45.9355C53.7899 46.204 53.9071 46.3797 54.1543 46.4629C54.0747 46.6313 53.9576 46.7779 53.8027 46.9023C53.3339 46.9609 52.8653 47.0196 52.3965 47.0781C50.8405 47.0396 49.2876 47.069 47.7383 47.166C46.9982 47.1407 46.2659 47.0528 45.541 46.9023C46.5162 46.2041 46.3698 45.9405 45.1016 46.1113C44.2991 45.9549 43.6839 46.2186 43.2559 46.9023C41.9686 47.1822 41.7928 46.9479 42.7285 46.1992C41.9669 46.082 41.205 46.082 40.4434 46.1992C39.983 46.927 39.3386 47.1613 38.5098 46.9023C39.485 46.2041 39.3386 45.9405 38.0703 46.1113C37.2679 45.9549 36.6526 46.2186 36.2246 46.9023C35.7558 46.9609 35.2872 47.0196 34.8184 47.0781C34.6187 47.2794 34.4429 47.4845 34.291 47.6934C34.291 46.873 34.291 46.0528 34.291 45.2324C34.291 44.9394 34.291 44.6465 34.291 44.3535C34.291 43.6504 34.291 42.9473 34.291 42.2441C34.9249 42.1933 35.5401 42.2519 36.1367 42.4199C37.2793 41.2773 38.4219 40.1348 39.5645 38.9922C39.8575 38.8749 40.1503 38.8749 40.4434 38.9922C39.3887 40.0469 38.334 41.1016 37.2793 42.1562C38.0854 42.1909 38.8764 42.2788 39.6523 42.4199C40.7949 41.2773 41.9375 40.1348 43.0801 38.9922C43.3731 38.8749 43.666 38.8749 43.959 38.9922C42.9043 40.0469 41.8496 41.1016 40.7949 42.1562C41.6011 42.1909 42.3921 42.2788 43.168 42.4199C44.3105 41.2773 45.4531 40.1348 46.5957 38.9922C46.8887 38.8749 47.1816 38.8749 47.4746 38.9922C46.4199 40.0469 45.3652 41.1016 44.3105 42.1562C45.0789 42.1865 45.8405 42.2744 46.5957 42.4199C46.4528 42.6509 46.277 42.856 46.0684 43.0352C46.768 43.2194 47.2953 42.9851 47.6504 42.332C48.5151 42.1911 49.3646 42.2204 50.1992 42.4199C51.143 41.4468 52.1098 40.5092 53.0996 39.6074Z" fill="#00843D"/>
<path opacity="0.997" fill-rule="evenodd" clip-rule="evenodd" d="M77.533 39.7832C77.533 40.0175 77.533 40.252 77.533 40.4863C77.533 41.3652 77.533 42.2441 77.533 43.123C77.533 43.4161 77.533 43.7089 77.533 44.002C77.533 44.7051 77.533 45.4082 77.533 46.1113C76.483 45.9009 75.604 46.1646 74.896 46.9023C73.609 47.1822 73.433 46.9479 74.369 46.1992C73.607 46.082 72.846 46.082 72.084 46.1992C71.559 46.8834 70.856 47.1764 69.975 47.0781C67.836 47.0488 65.6973 47.0196 63.5586 46.9902C62.2379 47.0584 60.9489 47.2342 59.6914 47.5176C58.9232 47.2991 58.0735 47.0646 57.1426 46.8145C57.9703 46.3404 58.4391 45.6372 58.5488 44.7051C58.704 43.896 58.7628 43.0756 58.7246 42.2441C59.4167 42.1926 60.0904 42.2512 60.7461 42.4199C61.8887 41.2773 63.0312 40.1348 64.1738 38.9922C64.4669 38.8749 64.7597 38.8749 65.0527 38.9922C63.998 40.0469 62.9434 41.1016 61.8887 42.1562C62.6948 42.1909 63.4858 42.2788 64.2617 42.4199C65.4043 41.2773 66.547 40.1348 67.689 38.9922C67.982 38.8749 68.275 38.8749 68.568 38.9922C67.514 40.0469 66.459 41.1016 65.4043 42.1562C66.173 42.1865 66.934 42.2744 67.689 42.4199C67.547 42.6509 67.371 42.856 67.162 43.0352C67.862 43.2194 68.389 42.9851 68.744 42.332C69.571 42.1865 70.391 42.2157 71.205 42.4199C71.062 42.6509 70.886 42.856 70.678 43.0352C71.377 43.2194 71.905 42.9851 72.26 42.332C73.124 42.1911 73.974 42.2204 74.809 42.4199C75.694 41.5053 76.602 40.6264 77.533 39.7832Z" fill="#00843D"/>
<path opacity="0.022" fill-rule="evenodd" clip-rule="evenodd" d="M58.5488 44.7051C58.4391 45.6372 57.9703 46.3404 57.1426 46.8145C56.8049 46.9662 56.4533 47.0832 56.0879 47.166C56.8496 46.2871 57.6699 45.4667 58.5488 44.7051Z" fill="#00843D"/>
<path fill-rule="evenodd" clip-rule="evenodd" d="M54.1543 46.4629C54.7164 46.9043 55.3609 47.1388 56.0879 47.166C56.4533 47.0832 56.8049 46.9662 57.1426 46.8145C58.0735 47.0646 58.9232 47.2991 59.6914 47.5176C60.9489 47.2342 62.2379 47.0584 63.5586 46.9902C65.6973 47.0196 67.836 47.0488 69.975 47.0781C70.856 47.1764 71.559 46.8834 72.084 46.1992C72.846 46.082 73.607 46.082 74.369 46.1992C73.433 46.9479 73.609 47.1822 74.896 46.9023C75.604 46.1646 76.483 45.9009 77.533 46.1113C77.533 46.2871 77.533 46.4629 77.533 46.6387C77.533 46.9317 77.533 47.2246 77.533 47.5176C77.564 48.4633 77.505 49.4007 77.357 50.3301C77.357 50.4473 77.299 50.5059 77.182 50.5059C76.901 50.8757 76.578 51.2273 76.215 51.5605C75.38 51.361 74.531 51.3317 73.666 51.4727C73.334 52.0192 72.866 52.1949 72.26 52C72.41 51.8789 72.527 51.7325 72.611 51.5605C71.797 51.3563 70.977 51.3271 70.15 51.4727C69.819 52.0192 69.35 52.1949 68.744 52C68.895 51.8789 69.012 51.7325 69.096 51.5605C68.282 51.3563 67.461 51.3271 66.635 51.4727C66.303 52.0192 65.8344 52.1949 65.2285 52C65.3792 51.8789 65.4962 51.7325 65.5801 51.5605C64.766 51.3563 63.9457 51.3271 63.1191 51.4727C62.7876 52.0192 62.3188 52.1949 61.7129 52C61.8635 51.8789 61.9806 51.7325 62.0645 51.5605C61.2504 51.3563 60.43 51.3271 59.6035 51.4727C59.2077 51.9801 58.6803 52.2145 58.0215 52.1758C57.1132 53.084 56.2051 53.9921 55.2969 54.9004C54.521 54.7592 53.73 54.6713 52.9238 54.6367C53.7442 53.8163 54.5644 52.9962 55.3848 52.1758C55.0917 52.0585 54.7989 52.0585 54.5059 52.1758C53.5976 53.084 52.6895 53.9921 51.7812 54.9004C51.0054 54.7592 50.2143 54.6713 49.4082 54.6367C50.2286 53.8163 51.0488 52.9962 51.8691 52.1758C51.5761 52.0585 51.2833 52.0585 50.9902 52.1758C50.082 53.084 49.1739 53.9921 48.2656 54.9004C47.4897 54.7592 46.6987 54.6713 45.8926 54.6367C46.7129 53.8163 47.5331 52.9962 48.3535 52.1758C48.0605 52.0585 47.7676 52.0585 47.4746 52.1758C46.5663 53.084 45.6583 53.9921 44.75 54.9004C43.9741 54.7592 43.1831 54.6713 42.377 54.6367C43.1973 53.8163 44.0175 52.9962 44.8379 52.1758C44.5449 52.0585 44.252 52.0585 43.959 52.1758C43.0507 53.084 42.1426 53.9921 41.2344 54.9004C40.4585 54.7592 39.6675 54.6713 38.8613 54.6367C39.6817 53.8163 40.5019 52.9962 41.3223 52.1758C41.0292 52.0585 40.7364 52.0585 40.4434 52.1758C39.5351 53.084 38.627 53.9921 37.7187 54.9004C37.3974 54.6803 37.0752 54.6803 36.752 54.9004C36.5229 54.6118 36.2886 54.3187 36.0488 54.0215C35.9729 53.8088 35.8556 53.633 35.6973 53.4941C35.3986 52.8967 35.1056 52.3108 34.8184 51.7363C34.8301 51.4799 34.7716 51.2455 34.6426 51.0332C34.435 50.2874 34.3177 49.5257 34.291 48.748C34.291 48.455 34.291 48.1622 34.291 47.8691C34.291 47.8106 34.291 47.7519 34.291 47.6934C34.4429 47.4845 34.6187 47.2794 34.8184 47.0781C35.2872 47.0196 35.7558 46.9609 36.2246 46.9023C36.6526 46.2186 37.2679 45.9549 38.0703 46.1113C39.3386 45.9405 39.485 46.2041 38.5098 46.9023C39.3386 47.1613 39.983 46.927 40.4434 46.1992C41.205 46.082 41.9669 46.082 42.7285 46.1992C41.7928 46.9479 41.9686 47.1822 43.2559 46.9023C43.6839 46.2186 44.2991 45.9549 45.1016 46.1113C46.3698 45.9405 46.5162 46.2041 45.541 46.9023C46.2659 47.0528 46.9982 47.1407 47.7383 47.166C49.2876 47.069 50.8405 47.0396 52.3965 47.0781C52.8653 47.0196 53.3339 46.9609 53.8027 46.9023C53.9576 46.7779 54.0747 46.6313 54.1543 46.4629Z" fill="#00843D"/>
<path opacity="0.995" fill-rule="evenodd" clip-rule="evenodd" d="M77.182 50.5059C77.179 50.8688 77.1199 51.2204 77.006 51.5605C75.834 54.7246 73.666 56.8925 70.502 58.0645C70.069 58.1114 69.658 58.2286 69.271 58.416C68.338 58.5211 67.4 58.5797 66.459 58.5918C66.166 58.5918 65.8731 58.5918 65.5801 58.5918C64.7012 58.5918 63.8223 58.5918 62.9434 58.5918C62.6503 58.5918 62.3575 58.5918 62.0645 58.5918C61.1855 58.5918 60.3066 58.5918 59.4277 58.5918C59.1347 58.5918 58.8419 58.5918 58.5488 58.5918C57.6699 58.5918 56.791 58.5918 55.9121 58.5918C55.6191 58.5918 55.3262 58.5918 55.0332 58.5918C54.1543 58.5918 53.2754 58.5918 52.3965 58.5918C52.1035 58.5918 51.8106 58.5918 51.5176 58.5918C50.6387 58.5918 49.7598 58.5918 48.8809 58.5918C48.5878 58.5918 48.295 58.5918 48.002 58.5918C47.123 58.5918 46.2441 58.5918 45.3652 58.5918C45.0722 58.5918 44.7794 58.5918 44.4863 58.5918C43.708 58.5392 42.9463 58.4222 42.2012 58.2402C41.9669 58.1817 41.7324 58.123 41.498 58.0645C40.8535 57.8301 40.209 57.5956 39.5645 57.3613C39.4813 57.1142 39.3055 56.9969 39.0371 57.0098C38.6223 56.5962 38.1535 56.2446 37.6309 55.9551C37.5136 55.7208 37.3378 55.545 37.1035 55.4277C36.9863 55.252 36.8692 55.0762 36.752 54.9004C37.0752 54.6803 37.3974 54.6803 37.7188 54.9004C38.627 53.9921 39.5351 53.084 40.4434 52.1758C40.7364 52.0585 41.0292 52.0585 41.3223 52.1758C40.5019 52.9962 39.6817 53.8163 38.8613 54.6367C39.6675 54.6713 40.4585 54.7592 41.2344 54.9004C42.1426 53.9921 43.0507 53.084 43.959 52.1758C44.252 52.0585 44.5449 52.0585 44.8379 52.1758C44.0175 52.9962 43.1973 53.8163 42.377 54.6367C43.1831 54.6713 43.9741 54.7592 44.75 54.9004C45.6583 53.9921 46.5663 53.084 47.4746 52.1758C47.7676 52.0585 48.0605 52.0585 48.3535 52.1758C47.5331 52.9962 46.7129 53.8163 45.8926 54.6367C46.6987 54.6713 47.4897 54.7592 48.2656 54.9004C49.1739 53.9921 50.082 53.084 50.9902 52.1758C51.2833 52.0585 51.5761 52.0585 51.8691 52.1758C51.0488 52.9962 50.2286 53.8163 49.4082 54.6367C50.2143 54.6713 51.0054 54.7592 51.7812 54.9004C52.6895 53.9921 53.5976 53.084 54.5059 52.1758C54.7989 52.0585 55.0917 52.0585 55.3848 52.1758C54.5644 52.9962 53.7442 53.8163 52.9238 54.6367C53.73 54.6713 54.521 54.7592 55.2969 54.9004C56.2051 53.9921 57.1132 53.084 58.0215 52.1758C58.6803 52.2145 59.2077 51.9801 59.6035 51.4727C60.43 51.3271 61.2504 51.3563 62.0645 51.5605C61.9806 51.7325 61.8635 51.8789 61.7129 52C62.3188 52.1949 62.7876 52.0192 63.1191 51.4727C63.9457 51.3271 64.766 51.3563 65.5801 51.5605C65.4962 51.7325 65.3792 51.8789 65.2285 52C65.8344 52.1949 66.303 52.0192 66.635 51.4727C67.461 51.3271 68.282 51.3563 69.096 51.5605C69.012 51.7325 68.895 51.8789 68.744 52C69.35 52.1949 69.819 52.0192 70.15 51.4727C70.977 51.3271 71.797 51.3563 72.611 51.5605C72.527 51.7325 72.41 51.8789 72.26 52C72.866 52.1949 73.334 52.0192 73.666 51.4727C74.531 51.3317 75.38 51.361 76.215 51.5605C76.5779 51.2273 76.901 50.8757 77.182 50.5059Z" fill="#00843D"/>
<path opacity="0.022" fill-rule="evenodd" clip-rule="evenodd" d="M68.041 70.369C68.041 70.662 68.041 70.955 68.041 71.248C67.631 71.6 67.221 71.951 66.811 72.303C66.616 72.293 66.44 72.234 66.283 72.127C66.811 71.482 67.396 70.896 68.041 70.369Z" fill="#00843D"/>
<path opacity="0.022" fill-rule="evenodd" clip-rule="evenodd" d="M8.09958 70.545C8.09958 70.838 8.09958 71.131 8.09958 71.424C7.68948 71.717 7.33788 72.068 7.04488 72.479C6.77648 72.491 6.60068 72.374 6.51758 72.127C6.98638 71.541 7.51368 71.014 8.09958 70.545Z" fill="#00843D"/>
<path opacity="0.982" fill-rule="evenodd" clip-rule="evenodd" d="M70.6779 67.732C70.9709 67.732 71.2639 67.732 71.5569 67.732C72.1009 67.976 72.6279 68.269 73.1389 68.611C73.1259 68.88 73.2429 69.056 73.4899 69.139C73.7649 69.872 73.8819 70.634 73.8419 71.424C73.8419 71.717 73.8419 72.01 73.8419 72.303C73.7959 72.563 73.8539 72.797 74.0179 73.006C74.7789 72.566 75.5409 72.127 76.3029 71.688C76.6499 71.6 77.0009 71.571 77.3569 71.6C77.6499 71.6 77.9429 71.6 78.2359 71.6C78.8539 71.82 79.3819 72.172 79.8179 72.654C79.8939 72.867 80.0119 73.043 80.1699 73.182C80.1699 73.24 80.1699 73.299 80.1699 73.357C79.4199 74.01 78.6279 74.596 77.7969 75.115C77.4769 74.942 77.2129 74.972 77.0059 75.203C75.8949 75.357 74.8109 75.269 73.7539 74.939C73.6659 75.027 73.5779 75.115 73.4899 75.203C72.3789 75.357 71.2949 75.269 70.2379 74.939C70.1499 75.027 70.0629 75.115 69.9749 75.203C68.8639 75.357 67.7799 75.269 66.7229 74.939C66.6349 75.027 66.5469 75.115 66.4589 75.203C64.8236 74.905 63.5346 75.403 62.5917 76.697C62.5332 76.697 62.4745 76.697 62.4159 76.697C62.4287 76.429 62.3115 76.253 62.0644 76.17C61.646 75.597 61.4702 74.952 61.537 74.236C61.54 73.873 61.5985 73.522 61.7128 73.182C62.0058 72.537 62.4745 72.068 63.119 71.775C63.4592 71.661 63.8107 71.603 64.1737 71.6C64.9545 71.517 65.6577 71.693 66.2829 72.127C66.4399 72.234 66.6159 72.293 66.8109 72.303C67.0899 72.62 67.4409 72.855 67.8649 73.006C68.0389 72.431 68.0969 71.845 68.0409 71.248C68.0409 70.955 68.0409 70.662 68.0409 70.369C68.2689 68.852 69.1479 67.973 70.6779 67.732Z" fill="#00843D"/>
<path opacity="0.986" fill-rule="evenodd" clip-rule="evenodd" d="M10.912 67.732C11.1685 67.721 11.4028 67.779 11.6151 67.908C12.2692 67.977 12.7966 68.27 13.1972 68.787C13.2731 69 13.3903 69.176 13.5487 69.314C13.7039 70.124 13.7627 70.944 13.7245 71.775C13.7245 72.068 13.7245 72.361 13.7245 72.654C13.6983 72.839 13.7275 73.015 13.8124 73.182C14.9058 72.239 16.1654 71.712 17.5917 71.6C17.8847 71.6 18.1776 71.6 18.4706 71.6C18.9849 71.878 19.4536 72.23 19.8769 72.654C19.905 72.945 20.022 73.179 20.2284 73.357C20.2841 74.096 20.2254 74.799 20.0526 75.467C19.212 75.336 18.3625 75.16 17.5038 74.939C17.4159 75.027 17.328 75.115 17.2401 75.203C16.1294 75.357 15.0453 75.269 13.9882 74.939C13.9003 75.027 13.8124 75.115 13.7245 75.203C12.6137 75.357 11.5297 75.269 10.4726 74.939C10.3847 75.027 10.2968 75.115 10.2089 75.203C9.09808 75.357 8.01408 75.269 6.95688 74.939C6.86898 75.027 6.78118 75.115 6.69328 75.203C5.58248 75.357 4.49848 75.269 3.44128 74.939C3.08958 75.437 2.70878 75.906 2.29868 76.346C2.24018 76.346 2.18148 76.346 2.12288 76.346C1.70458 75.772 1.52878 75.128 1.59558 74.412C1.59558 74.119 1.59558 73.826 1.59558 73.533C1.94718 72.596 2.59178 71.951 3.52918 71.6C3.82218 71.6 4.11508 71.6 4.40808 71.6C5.16588 71.569 5.86898 71.745 6.51748 72.127C6.60058 72.374 6.77638 72.491 7.04478 72.478C7.37088 72.688 7.69308 72.922 8.01158 73.182C8.09918 72.599 8.12848 72.013 8.09948 71.424C8.09948 71.131 8.09948 70.838 8.09948 70.545C8.27228 68.849 9.20988 67.911 10.912 67.732Z" fill="#00843D"/>
<path opacity="0.984" fill-rule="evenodd" clip-rule="evenodd" d="M42.2011 68.084C42.3578 68.191 42.5335 68.25 42.7285 68.26C43.2154 68.709 43.567 69.236 43.7832 69.842C43.7832 70.135 43.7832 70.428 43.7832 70.721C43.7259 71.491 43.7846 72.253 43.959 73.006C44.3615 72.836 44.7131 72.602 45.0136 72.303C45.5624 72.116 46.0898 71.882 46.5957 71.6C47.3658 71.577 48.1276 71.636 48.8808 71.775C48.964 72.023 49.1398 72.14 49.4082 72.127C49.7935 72.663 50.0863 73.249 50.2871 73.885C50.2871 73.943 50.2871 74.002 50.2871 74.061C49.8548 74.461 49.386 74.842 48.8808 75.203C47.7701 75.357 46.686 75.269 45.6289 74.939C45.541 75.027 45.4531 75.115 45.3652 75.203C44.2544 75.357 43.1704 75.269 42.1132 74.939C42.0254 75.027 41.9375 75.115 41.8496 75.203C40.7388 75.357 39.6548 75.269 38.5976 74.939C38.5097 75.027 38.4218 75.115 38.334 75.203C37.2232 75.357 36.1391 75.269 35.082 74.939C34.5434 75.742 33.8695 76.387 33.0605 76.873C32.546 76.652 32.1357 76.301 31.83 75.818C31.7715 75.584 31.7128 75.35 31.6543 75.115C31.2776 73.496 31.8634 72.353 33.4121 71.688C33.9951 71.6 34.581 71.571 35.1699 71.6C35.3822 71.729 35.6165 71.787 35.873 71.775C36.3139 72.201 36.8412 72.494 37.455 72.654C37.5097 72.826 37.627 72.943 37.8066 73.006C37.9699 72.797 38.0284 72.563 37.9824 72.303C37.9515 71.357 38.0102 70.42 38.1582 69.49C38.2754 69.49 38.334 69.432 38.334 69.314C38.5683 68.729 38.9785 68.318 39.5644 68.084C39.6817 68.084 39.7402 68.025 39.7402 67.908C40.5887 67.636 41.4089 67.695 42.2011 68.084Z" fill="#00843D"/>
<path opacity="0.988" fill-rule="evenodd" clip-rule="evenodd" d="M102.143 67.908C102.226 68.155 102.401 68.273 102.67 68.26C103.095 68.683 103.446 69.152 103.725 69.666C103.725 69.959 103.725 70.252 103.725 70.545C103.695 71.426 103.725 72.305 103.812 73.182C103.995 72.969 104.2 72.793 104.428 72.654C105.011 72.367 105.597 72.074 106.186 71.775C106.303 71.775 106.361 71.717 106.361 71.6C107.193 71.561 108.013 71.62 108.822 71.775C108.905 72.023 109.081 72.14 109.35 72.127C109.778 72.574 110.071 73.101 110.228 73.709C109.794 74.29 109.266 74.788 108.646 75.203C107.536 75.357 106.452 75.269 105.394 74.939C105.307 75.027 105.219 75.115 105.131 75.203C104.02 75.357 102.936 75.269 101.879 74.939C101.791 75.027 101.703 75.115 101.615 75.203C100.504 75.357 99.4199 75.269 98.3629 74.939C97.3599 76.206 96.2179 77.32 94.9359 78.279C94.5869 77.811 94.1179 77.518 93.5289 77.4C93.4459 77.153 93.2699 77.036 93.0019 77.049C92.4709 76.693 92.0609 76.224 91.7709 75.643C91.7129 75.408 91.6539 75.174 91.5959 74.939C91.4779 72.596 92.5919 71.482 94.9359 71.6C95.1919 71.588 95.4259 71.646 95.6389 71.775C96.2269 72.074 96.8129 72.367 97.3959 72.654C97.4799 72.901 97.6549 73.019 97.9239 73.006C98.0479 73.192 98.1059 73.133 98.0999 72.83C98.0999 72.537 98.0999 72.244 98.0999 71.951C98.0209 70.922 98.1379 69.926 98.4509 68.963C98.5679 68.963 98.6269 68.904 98.6269 68.787C98.7439 68.787 98.8029 68.729 98.8029 68.611C98.9199 68.611 98.9779 68.553 98.9779 68.436C99.0959 68.436 99.1539 68.377 99.1539 68.26C99.2709 68.26 99.3299 68.201 99.3299 68.084C100.247 67.706 101.184 67.647 102.143 67.908Z" fill="#00843D"/>
<path opacity="0.022" fill-rule="evenodd" clip-rule="evenodd" d="M98.1 71.951C98.1 72.244 98.1 72.537 98.1 72.83C97.982 72.83 97.924 72.889 97.924 73.006C97.655 73.019 97.48 72.901 97.396 72.654C97.572 72.361 97.807 72.127 98.1 71.951Z" fill="#00843D"/>
<path opacity="0.022" fill-rule="evenodd" clip-rule="evenodd" d="M37.9824 72.303C38.0285 72.563 37.9699 72.797 37.8066 73.006C37.627 72.943 37.5097 72.826 37.4551 72.654C37.6309 72.537 37.8066 72.42 37.9824 72.303Z" fill="#00843D"/>
<path opacity="0.022" fill-rule="evenodd" clip-rule="evenodd" d="M4.23237 77.752C4.50077 77.739 4.67657 77.856 4.75977 78.104C4.75977 78.162 4.75977 78.221 4.75977 78.279C4.64247 78.279 4.58397 78.338 4.58397 78.455C4.27987 78.548 4.04537 78.723 3.88087 78.982C3.52927 79.1 3.17767 79.217 2.82617 79.334C3.29497 78.807 3.76357 78.279 4.23237 77.752Z" fill="#00843D"/>
<path fill-rule="evenodd" clip-rule="evenodd" d="M20.0527 75.467C19.9942 75.701 19.9355 75.936 19.877 76.17C19.7597 76.17 19.7012 76.228 19.7012 76.346C19.5839 76.346 19.5254 76.404 19.5254 76.521C19.4081 76.521 19.3496 76.58 19.3496 76.697C19.2324 76.697 19.1738 76.756 19.1738 76.873C18.3644 77.22 17.6027 77.659 16.8887 78.191C17.0769 78.341 17.2527 78.488 17.416 78.631C17.0126 79.123 16.5731 79.591 16.0977 80.037C15.263 79.838 14.4135 79.808 13.5488 79.949C13.2257 80.354 12.8155 80.471 12.3184 80.301C12.3987 80.228 12.4574 80.14 12.4941 80.037C11.6801 79.833 10.8597 79.804 10.0332 79.949C9.71013 80.354 9.29983 80.471 8.80273 80.301C8.88313 80.228 8.94183 80.14 8.97853 80.037C8.16453 79.833 7.34413 79.804 6.51763 79.949C6.19453 80.354 5.78423 80.471 5.28713 80.301C5.36743 80.228 5.42622 80.14 5.46292 80.037C4.70773 79.892 3.94613 79.804 3.17773 79.773C3.44863 79.532 3.68313 79.269 3.88093 78.982C4.04543 78.723 4.27993 78.548 4.58403 78.455C4.70123 78.455 4.75983 78.397 4.75983 78.279C4.99413 78.221 4.99413 78.162 4.75983 78.104C4.67663 77.856 4.50083 77.739 4.23243 77.752C3.75083 77.39 3.22342 77.097 2.65042 76.873C2.53312 76.697 2.41613 76.521 2.29883 76.346C2.70893 75.906 3.08973 75.437 3.44143 74.939C4.49863 75.269 5.58263 75.357 6.69343 75.203C6.78123 75.115 6.86913 75.027 6.95703 74.939C8.01423 75.269 9.09823 75.357 10.209 75.203C10.2969 75.115 10.3848 75.027 10.4727 74.939C11.5298 75.269 12.6138 75.357 13.7246 75.203C13.8125 75.115 13.9004 75.027 13.9883 74.939C15.0454 75.269 16.1295 75.357 17.2402 75.203C17.3281 75.115 17.416 75.027 17.5039 74.939C18.3626 75.16 19.2121 75.336 20.0527 75.467Z" fill="#00843D"/>
<path fill-rule="evenodd" clip-rule="evenodd" d="M50.2871 74.061C50.2871 74.295 50.2871 74.529 50.2871 74.764C50.0906 76.132 49.3289 77.011 48.002 77.4C48.025 77.27 47.9956 77.153 47.9141 77.049C47.6797 77.283 47.4453 77.283 47.2109 77.049C46.2148 78.045 45.2188 79.041 44.2227 80.037C43.388 79.838 42.5385 79.808 41.6738 79.949C41.3507 80.354 40.9405 80.471 40.4434 80.301C40.5237 80.228 40.5824 80.14 40.6191 80.037C39.8051 79.833 38.9847 79.804 38.1582 79.949C37.8351 80.354 37.4248 80.471 36.9277 80.301C37.0081 80.228 37.0668 80.14 37.1035 80.037C36.3484 79.892 35.5867 79.804 34.8184 79.773C35.6387 78.953 36.4589 78.133 37.2793 77.312C37.0568 77.258 36.8516 77.17 36.6641 77.049C34.9456 78.797 33.2172 80.496 31.4785 82.146C31.5001 81.297 31.7638 80.536 32.2695 79.861C33.1337 79.239 34.0419 78.682 34.9941 78.191C34.5869 77.812 34.118 77.549 33.5879 77.4C33.449 77.242 33.2732 77.125 33.0605 77.049C33.0605 76.99 33.0605 76.932 33.0605 76.873C33.8695 76.387 34.5434 75.742 35.082 74.939C36.1392 75.269 37.2232 75.357 38.334 75.203C38.4219 75.115 38.5098 75.027 38.5977 74.939C39.6548 75.269 40.7388 75.357 41.8496 75.203C41.9375 75.115 42.0254 75.027 42.1133 74.939C43.1704 75.269 44.2545 75.357 45.3652 75.203C45.4531 75.115 45.541 75.027 45.6289 74.939C46.6861 75.269 47.7701 75.357 48.8809 75.203C49.3861 74.842 49.8549 74.461 50.2871 74.061Z" fill="#00843D"/>
<path fill-rule="evenodd" clip-rule="evenodd" d="M80.17 73.357C80.385 74.117 80.385 74.879 80.17 75.643C80.053 75.643 79.994 75.701 79.994 75.818C79.701 76.228 79.35 76.58 78.939 76.873C78.822 76.873 78.764 76.932 78.764 77.049C78.646 77.049 78.588 77.107 78.588 77.225C77.983 77.498 77.397 77.82 76.83 78.191C76.991 78.24 77.108 78.328 77.182 78.455C76.85 79.053 76.41 79.58 75.863 80.037C75.029 79.838 74.179 79.808 73.314 79.949C72.991 80.354 72.581 80.471 72.084 80.301C72.164 80.228 72.223 80.14 72.26 80.037C71.446 79.833 70.625 79.804 69.799 79.949C69.476 80.354 69.065 80.471 68.568 80.301C68.649 80.228 68.707 80.14 68.744 80.037C67.989 79.892 67.227 79.804 66.459 79.773C67.279 78.953 68.1 78.133 68.92 77.312C68.697 77.258 68.492 77.17 68.305 77.049C67.719 77.635 67.133 78.221 66.547 78.807C65.8321 78.637 65.0997 78.579 64.3496 78.631C64.3496 78.572 64.3496 78.514 64.3496 78.455C64.5996 78.418 64.8339 78.33 65.0527 78.191C64.9571 78.065 64.8399 77.977 64.7012 77.928C64.5446 77.821 64.3688 77.762 64.1738 77.752C63.6832 77.359 63.1559 77.008 62.5918 76.697C63.5347 75.403 64.8237 74.905 66.459 75.203C66.547 75.115 66.635 75.027 66.723 74.939C67.78 75.269 68.864 75.357 69.975 75.203C70.063 75.115 70.15 75.027 70.238 74.939C71.295 75.269 72.379 75.357 73.49 75.203C73.578 75.115 73.666 75.027 73.754 74.939C74.811 75.269 75.895 75.357 77.006 75.203C77.213 74.972 77.477 74.942 77.797 75.115C78.628 74.596 79.42 74.01 80.17 73.357Z" fill="#00843D"/>
<path fill-rule="evenodd" clip-rule="evenodd" d="M110.229 73.709C110.229 74.002 110.229 74.295 110.229 74.588C110.271 75.167 110.124 75.694 109.789 76.17C108.871 76.912 107.904 77.586 106.889 78.191C107.4 78.474 107.868 78.796 108.295 79.158C108.068 79.474 107.804 79.767 107.504 80.037C106.669 79.838 105.82 79.808 104.955 79.949C104.632 80.354 104.222 80.471 103.725 80.301C103.805 80.228 103.864 80.14 103.9 80.037C103.145 79.892 102.384 79.804 101.615 79.773C102.436 78.953 103.256 78.133 104.076 77.312C103.854 77.258 103.648 77.17 103.461 77.049C102.465 78.045 101.469 79.041 100.473 80.037C99.6379 79.838 98.7879 79.808 97.9239 79.949C97.6009 80.354 97.1899 80.471 96.6929 80.301C96.7739 80.228 96.8319 80.14 96.8689 80.037C96.0549 79.833 95.2349 79.804 94.4079 79.949C93.6119 80.805 92.7619 81.596 91.8589 82.322C91.7739 82.489 91.7449 82.665 91.7709 82.85C91.7129 82.85 91.6539 82.85 91.5959 82.85C91.5959 82.557 91.5959 82.264 91.5959 81.971C91.5559 80.908 91.9659 80.059 92.8259 79.422C93.5539 79.071 94.2579 78.69 94.9359 78.279C96.2179 77.32 97.3599 76.206 98.3629 74.939C99.4199 75.269 100.504 75.357 101.615 75.203C101.703 75.115 101.791 75.027 101.879 74.939C102.936 75.269 104.02 75.357 105.131 75.203C105.219 75.115 105.307 75.027 105.395 74.939C106.452 75.269 107.536 75.357 108.646 75.203C109.266 74.788 109.794 74.29 110.229 73.709Z" fill="#00843D"/>
<path opacity="0.996" fill-rule="evenodd" clip-rule="evenodd" d="M17.416 78.631C17.4745 78.631 17.5332 78.631 17.5918 78.631C17.7675 78.748 17.9433 78.865 18.1191 78.982C18.7372 79.203 19.2645 79.555 19.7011 80.037C19.7771 80.25 19.8943 80.426 20.0527 80.564C20.2062 81.315 20.2647 82.077 20.2285 82.85C20.1112 82.85 20.0527 82.908 20.0527 83.025C19.7635 83.783 19.2362 84.311 18.4707 84.607C18.3534 84.607 18.2949 84.666 18.2949 84.783C17.5248 84.806 16.763 84.747 16.0097 84.607C15.9266 84.36 15.7508 84.243 15.4824 84.256C14.9563 83.88 14.3996 83.529 13.8125 83.201C13.7248 84.078 13.6954 84.957 13.7246 85.838C13.7246 86.131 13.7246 86.424 13.7246 86.717C13.3145 87.478 12.7284 88.065 11.9668 88.475C11.6737 88.475 11.3809 88.475 11.0879 88.475C10.3135 88.557 9.61037 88.381 8.97847 87.947C8.91997 87.771 8.80267 87.654 8.62687 87.596C8.19267 86.964 8.01697 86.261 8.09957 85.486C8.09957 85.193 8.09957 84.9 8.09957 84.607C8.12837 84.135 8.09907 83.666 8.01167 83.201C7.07667 83.8 6.10987 84.328 5.11127 84.783C4.81827 84.783 4.52537 84.783 4.23237 84.783C3.56567 84.743 2.97977 84.508 2.47457 84.08C2.35727 83.846 2.18157 83.67 1.94717 83.553C1.65837 82.886 1.54137 82.183 1.59567 81.443C1.66207 81.018 1.77937 80.608 1.94717 80.213C2.18157 79.861 2.47457 79.568 2.82607 79.334C3.17767 79.217 3.52927 79.1 3.88077 78.982C3.68307 79.269 3.44857 79.532 3.17767 79.773C3.94597 79.804 4.70767 79.892 5.46287 80.037C5.42607 80.14 5.36737 80.228 5.28707 80.301C5.78417 80.471 6.19447 80.354 6.51747 79.949C7.34407 79.804 8.16437 79.833 8.97847 80.037C8.94167 80.14 8.88297 80.228 8.80267 80.301C9.29977 80.471 9.71007 80.354 10.0332 79.949C10.8597 79.804 11.6801 79.833 12.4941 80.037C12.4574 80.14 12.3987 80.228 12.3183 80.301C12.8154 80.471 13.2257 80.354 13.5488 79.949C14.4135 79.808 15.263 79.838 16.0976 80.037C16.5731 79.591 17.0126 79.123 17.416 78.631Z" fill="#00843D"/>
<path opacity="0.995" fill-rule="evenodd" clip-rule="evenodd" d="M48.002 77.4C47.6309 77.618 47.2793 77.881 46.9473 78.191C47.4581 78.652 48.044 78.974 48.7051 79.158C48.7882 79.405 48.964 79.523 49.2324 79.51C49.7193 79.959 50.0709 80.486 50.2871 81.092C50.2871 81.326 50.2871 81.561 50.2871 81.795C50.1699 83.67 49.1739 84.666 47.2988 84.783C47.0645 84.783 46.83 84.783 46.5957 84.783C46.0165 84.494 45.4306 84.201 44.8379 83.904C44.7547 83.657 44.579 83.54 44.3105 83.553C43.8656 83.047 43.6899 83.164 43.7832 83.904C43.7832 84.197 43.7832 84.49 43.7832 84.783C43.9931 87.475 42.7626 88.706 40.0918 88.475C39.9352 88.367 39.7594 88.309 39.5645 88.299C39.0371 87.889 38.5683 87.42 38.1582 86.893C38.2053 86.612 38.1466 86.377 37.9824 86.189C37.9824 85.369 37.9824 84.549 37.9824 83.729C38.0086 83.544 37.9794 83.368 37.8945 83.201C37.5528 83.504 37.1721 83.738 36.752 83.904C36.6347 83.904 36.5762 83.963 36.5762 84.08C36.4589 84.08 36.4004 84.139 36.4004 84.256C35.448 84.763 34.452 84.88 33.4121 84.607C33.2555 84.5 33.0797 84.442 32.8848 84.432C32.3486 84.071 31.9385 83.603 31.6543 83.025C31.6661 82.769 31.6075 82.535 31.4785 82.322C31.4785 82.264 31.4785 82.205 31.4785 82.146C33.2172 80.496 34.9456 78.797 36.6641 77.049C36.8516 77.17 37.0568 77.258 37.2793 77.312C36.4589 78.133 35.6387 78.953 34.8184 79.773C35.5867 79.804 36.3484 79.892 37.1035 80.037C37.0668 80.14 37.0081 80.228 36.9277 80.301C37.4248 80.471 37.8351 80.354 38.1582 79.949C38.9847 79.804 39.8051 79.833 40.6191 80.037C40.5824 80.14 40.5237 80.228 40.4434 80.301C40.9405 80.471 41.3507 80.354 41.6738 79.949C42.5385 79.808 43.388 79.838 44.2227 80.037C45.2188 79.041 46.2148 78.045 47.2109 77.049C47.4453 77.283 47.6797 77.283 47.9141 77.049C47.9956 77.153 48.025 77.27 48.002 77.4ZM44.3105 83.553C44.1348 83.67 43.959 83.787 43.7832 83.904C43.6899 83.164 43.8656 83.047 44.3105 83.553Z" fill="#00843D"/>
<path opacity="0.992" fill-rule="evenodd" clip-rule="evenodd" d="M77.182 78.455C77.24 78.455 77.299 78.455 77.357 78.455C77.536 78.661 77.77 78.779 78.061 78.807C78.551 79.2 79.079 79.551 79.643 79.861C79.63 80.13 79.747 80.306 79.994 80.389C80.223 81.071 80.34 81.774 80.346 82.498C80.228 82.498 80.17 82.557 80.17 82.674C79.936 83.729 79.291 84.373 78.236 84.607C78.119 84.607 78.061 84.666 78.061 84.783C77.271 84.824 76.509 84.707 75.775 84.432C75.637 84.273 75.461 84.156 75.248 84.08C74.805 83.813 74.365 83.52 73.93 83.201C73.842 83.961 73.813 84.722 73.842 85.486C73.839 85.849 73.78 86.201 73.666 86.541C73.318 87.475 72.674 88.119 71.732 88.475C71.439 88.475 71.147 88.475 70.854 88.475C70.179 88.559 69.593 88.383 69.096 87.947C68.92 87.771 68.744 87.596 68.568 87.42C68.134 86.788 67.958 86.085 68.041 85.311C68.041 85.018 68.041 84.725 68.041 84.432C68.07 84.017 68.041 83.607 67.953 83.201C66.982 83.848 65.9563 84.375 64.877 84.783C64.5839 84.783 64.2911 84.783 63.9981 84.783C63.3132 84.675 62.7272 84.382 62.2403 83.904C62.1817 83.729 62.0645 83.611 61.8887 83.553C61.6138 82.819 61.4965 82.057 61.5371 81.268C61.9427 80.042 62.763 79.221 63.9981 78.807C64.1153 78.807 64.1738 78.748 64.1738 78.631C64.2324 78.631 64.2911 78.631 64.3496 78.631C65.0997 78.579 65.8322 78.637 66.547 78.807C67.133 78.221 67.719 77.635 68.305 77.049C68.492 77.17 68.697 77.258 68.92 77.312C68.1 78.133 67.279 78.953 66.459 79.773C67.227 79.804 67.989 79.892 68.744 80.037C68.707 80.14 68.649 80.228 68.568 80.301C69.065 80.471 69.476 80.354 69.799 79.949C70.625 79.804 71.446 79.833 72.26 80.037C72.223 80.14 72.164 80.228 72.084 80.301C72.581 80.471 72.991 80.354 73.314 79.949C74.179 79.808 75.029 79.838 75.863 80.037C76.41 79.58 76.85 79.053 77.182 78.455Z" fill="#00843D"/>
<path opacity="0.998" fill-rule="evenodd" clip-rule="evenodd" d="M108.295 79.158C108.353 79.158 108.412 79.158 108.471 79.158C108.627 79.265 108.803 79.324 108.998 79.334C109.481 79.815 109.891 80.343 110.229 80.916C110.229 81.15 110.229 81.385 110.229 81.619C110.283 83.763 109.229 84.818 107.064 84.783C106.808 84.795 106.574 84.736 106.361 84.607C105.78 84.317 105.194 84.024 104.604 83.729C104.465 83.57 104.289 83.453 104.076 83.377C103.777 83.173 103.66 83.29 103.725 83.729C103.725 84.022 103.725 84.314 103.725 84.607C104.018 87.478 102.728 88.768 99.8569 88.475C99.7189 88.316 99.5429 88.199 99.3299 88.123C98.7889 87.758 98.3789 87.289 98.0999 86.717C98.0999 86.482 98.0999 86.248 98.0999 86.014C98.1559 85.1 98.0969 84.222 97.9239 83.377C97.2879 83.578 96.7019 83.871 96.1659 84.256C96.0489 84.256 95.9899 84.314 95.9899 84.432C95.8729 84.432 95.8139 84.49 95.8139 84.607C94.9329 84.83 94.0539 84.83 93.1779 84.607C93.0389 84.449 92.8629 84.332 92.6499 84.256C92.1789 83.899 91.8859 83.43 91.7709 82.85C91.7449 82.665 91.7739 82.489 91.8589 82.322C92.7619 81.596 93.6119 80.805 94.4079 79.949C95.2349 79.804 96.0549 79.833 96.8689 80.037C96.8319 80.14 96.7739 80.228 96.6929 80.301C97.1899 80.471 97.6009 80.354 97.9239 79.949C98.7889 79.808 99.6379 79.838 100.473 80.037C101.469 79.041 102.465 78.045 103.461 77.049C103.649 77.17 103.854 77.258 104.076 77.312C103.256 78.133 102.436 78.953 101.615 79.773C102.384 79.804 103.145 79.892 103.9 80.037C103.864 80.14 103.805 80.228 103.725 80.301C104.222 80.471 104.632 80.354 104.955 79.949C105.82 79.808 106.669 79.838 107.504 80.037C107.804 79.767 108.068 79.474 108.295 79.158ZM104.076 83.377C104.018 83.553 103.9 83.67 103.725 83.729C103.66 83.29 103.777 83.173 104.076 83.377Z" fill="#00843D"/>
<path opacity="0.997" fill-rule="evenodd" clip-rule="evenodd" d="M3.00198 94.1C3.88088 94.1 4.75978 94.1 5.63868 94.1C5.93168 94.1 6.22459 94.1 6.51759 94.1C7.39649 94.1 8.27538 94.1 9.15428 94.1C9.44738 94.1 9.74018 94.1 10.0332 94.1C10.9121 94.1 11.7911 94.1 12.67 94.1C12.963 94.1 13.2558 94.1 13.5489 94.1C14.4278 94.1 15.3067 94.1 16.1856 94.1C16.4786 94.1 16.7715 94.1 17.0645 94.1C17.8849 94.1 18.7051 94.1 19.5254 94.1C19.6643 94.258 19.8401 94.375 20.0528 94.451C20.5884 94.876 20.9985 95.404 21.2832 96.033C21.2832 96.268 21.2832 96.502 21.2832 96.736C21.2593 98.724 20.2632 99.721 18.295 99.725C18.0019 99.725 17.7091 99.725 17.4161 99.725C16.5371 99.725 15.6582 99.725 14.7793 99.725C14.4863 99.725 14.1935 99.725 13.9004 99.725C13.0215 99.725 12.1426 99.725 11.2637 99.725C10.9707 99.725 10.6778 99.725 10.3848 99.725C9.50588 99.725 8.62698 99.725 7.74808 99.725C7.45508 99.725 7.16219 99.725 6.86919 99.725C5.99029 99.725 5.11138 99.725 4.23248 99.725C3.93938 99.725 3.64658 99.725 3.35358 99.725C2.67888 99.809 2.09298 99.633 1.59568 99.197C1.41998 99.021 1.24419 98.846 1.06839 98.67C0.634185 98.038 0.458384 97.335 0.541084 96.561C0.607484 96.135 0.724685 95.725 0.892585 95.33C1.18559 94.92 1.53718 94.568 1.94728 94.275C2.29888 94.217 2.65038 94.158 3.00198 94.1Z" fill="#00843D"/>
<path opacity="0.991" fill-rule="evenodd" clip-rule="evenodd" d="M33.7636 94.1C34.0566 94.1 34.3494 94.1 34.6425 94.1C35.5214 94.1 36.4003 94.1 37.2792 94.1C37.5722 94.1 37.8651 94.1 38.1581 94.1C39.037 94.1 39.9159 94.1 40.7948 94.1C41.0878 94.1 41.3807 94.1 41.6737 94.1C42.5526 94.1 43.4315 94.1 44.3104 94.1C44.6035 94.1 44.8963 94.1 45.1893 94.1C46.0682 94.1 46.9472 94.1 47.8261 94.1C48.1191 94.1 48.4119 94.1 48.705 94.1C49.3717 94.14 49.9576 94.375 50.4628 94.803C50.58 95.037 50.7558 95.213 50.9901 95.33C51.2541 96.005 51.3712 96.709 51.3417 97.439C51.0021 98.599 50.2402 99.361 49.0565 99.725C48.1776 99.725 47.2987 99.725 46.4198 99.725C46.1268 99.725 45.8339 99.725 45.5409 99.725C44.662 99.725 43.7831 99.725 42.9042 99.725C42.6112 99.725 42.3183 99.725 42.0253 99.725C41.1464 99.725 40.2675 99.725 39.3886 99.725C39.0955 99.725 38.8027 99.725 38.5097 99.725C37.6307 99.725 36.7518 99.725 35.8729 99.725C35.5799 99.725 35.2871 99.725 34.994 99.725C34.1151 99.725 33.2362 99.725 32.3573 99.725C32.2184 99.566 32.0427 99.449 31.83 99.373C31.2887 99.008 30.8786 98.539 30.5995 97.967C30.5995 97.732 30.5995 97.498 30.5995 97.264C30.541 95.096 31.5957 94.041 33.7636 94.1Z" fill="#00843D"/>
<path opacity="0.996" fill-rule="evenodd" clip-rule="evenodd" d="M62.7676 94.1C63.6465 94.1 64.5254 94.1 65.4043 94.1C65.6974 94.1 65.9902 94.1 66.2831 94.1C67.1621 94.1 68.0411 94.1 68.9201 94.1C69.2131 94.1 69.5061 94.1 69.7991 94.1C70.6781 94.1 71.5571 94.1 72.4351 94.1C72.7291 94.1 73.0211 94.1 73.3141 94.1C74.1931 94.1 75.0721 94.1 75.9511 94.1C76.2441 94.1 76.5371 94.1 76.8301 94.1C77.7091 94.1 78.5881 94.1 79.4671 94.1C79.6061 94.258 79.7811 94.375 79.9941 94.451C80.5351 94.816 80.9451 95.285 81.2251 95.857C81.2251 96.092 81.2251 96.326 81.2251 96.561C81.2831 98.728 80.2281 99.783 78.0601 99.725C77.7671 99.725 77.4751 99.725 77.1821 99.725C76.3031 99.725 75.4241 99.725 74.5451 99.725C74.2521 99.725 73.9591 99.725 73.6661 99.725C72.7871 99.725 71.9081 99.725 71.0291 99.725C70.7361 99.725 70.4431 99.725 70.1501 99.725C69.2711 99.725 68.3931 99.725 67.5141 99.725C67.2211 99.725 66.9281 99.725 66.6351 99.725C65.7559 99.725 64.877 99.725 63.9981 99.725C63.7051 99.725 63.4122 99.725 63.1192 99.725C62.4524 99.684 61.8666 99.45 61.3614 99.021C61.2441 98.787 61.0683 98.611 60.834 98.494C60.57 97.819 60.4529 97.116 60.4825 96.385C60.8333 95.214 61.595 94.452 62.7676 94.1Z" fill="#00843D"/>
<path opacity="0.994" fill-rule="evenodd" clip-rule="evenodd" d="M93.529 94.1C93.822 94.1 94.115 94.1 94.408 94.1C95.287 94.1 96.166 94.1 97.045 94.1C97.338 94.1 97.631 94.1 97.924 94.1C98.803 94.1 99.682 94.1 100.561 94.1C100.854 94.1 101.146 94.1 101.439 94.1C102.318 94.1 103.197 94.1 104.076 94.1C104.369 94.1 104.662 94.1 104.955 94.1C105.834 94.1 106.713 94.1 107.592 94.1C107.885 94.1 108.178 94.1 108.471 94.1C108.827 94.071 109.179 94.1 109.525 94.188C109.803 94.38 110.096 94.526 110.404 94.627C110.48 94.84 110.597 95.015 110.756 95.154C111.19 95.786 111.366 96.489 111.283 97.264C111.217 97.689 111.1 98.099 110.932 98.494C110.639 98.904 110.287 99.256 109.877 99.549C109.525 99.607 109.174 99.666 108.822 99.725C107.943 99.725 107.064 99.725 106.186 99.725C105.893 99.725 105.6 99.725 105.307 99.725C104.428 99.725 103.549 99.725 102.67 99.725C102.377 99.725 102.084 99.725 101.791 99.725C100.912 99.725 100.033 99.725 99.154 99.725C98.861 99.725 98.568 99.725 98.275 99.725C97.396 99.725 96.518 99.725 95.639 99.725C95.346 99.725 95.053 99.725 94.76 99.725C93.939 99.725 93.119 99.725 92.299 99.725C92.16 99.566 91.984 99.449 91.771 99.373C91.236 98.948 90.826 98.421 90.541 97.791C90.541 97.557 90.541 97.322 90.541 97.088C90.544 95.092 91.541 94.096 93.529 94.1Z" fill="#00843D"/>
</svg>
