<svg width="36" height="36" viewBox="0 0 36 36" fill="none" xmlns="http://www.w3.org/2000/svg">
<path d="M35.9472 27.2139L34.3122 34.3021C34.0826 35.3041 33.2019 36.0052 32.1703 36.0052C14.4295 36.0038 0 21.5743 0 3.83281C0 2.80193 0.701012 1.92013 1.70313 1.69159L8.7913 0.0566693C9.82359 -0.182557 10.8784 0.353275 11.3073 1.33085L14.5786 8.96048C14.961 9.85916 14.703 10.9062 13.9471 11.5236L10.1611 14.5635C12.5506 19.431 16.5081 23.3886 21.377 25.7794L24.4767 21.9962C25.0876 21.2382 26.1426 20.9759 27.0412 21.3651L34.6709 24.6357C35.5885 25.1184 36.1862 26.1873 35.9472 27.2139Z" fill="#5F6369"/>
</svg>
