<svg width="30" height="43" viewBox="0 0 30 43" fill="none" xmlns="http://www.w3.org/2000/svg">
<path d="M17.5215 0.983576L24.7414 0.0955991C25.7615 -0.0313094 26.7215 0.556477 27.0744 1.52585C33.1408 18.1972 24.5166 36.6917 7.84507 42.7597C6.87636 43.1122 5.80798 42.7551 5.25048 41.8916L1.28986 35.7901C0.711997 34.9018 0.854756 33.7274 1.62667 32.99L7.67734 27.3065C8.39104 26.6398 9.46316 26.5241 10.3019 27.0233L14.4533 29.5412C18.21 25.6311 20.5754 20.5586 21.1568 15.1656L16.5416 13.5468C15.6203 13.232 15.013 12.3304 15.0714 11.3528L15.5352 3.06471C15.675 2.03728 16.475 1.11005 17.5215 0.983576Z" fill="#5F6369"/>
</svg>
