<svg width="28" height="28" viewBox="0 0 28 28" fill="none" xmlns="http://www.w3.org/2000/svg">
<path fill-rule="evenodd" clip-rule="evenodd" d="M3.63826 12.2685C3.63826 7.5093 7.5093 3.63826 12.2685 3.63826C17.0276 3.63826 20.8987 7.5093 20.8987 12.2685C20.8987 17.0276 17.0276 20.8987 12.2685 20.8987C7.5093 20.8987 3.63826 17.0276 3.63826 12.2685ZM27.5 25.2812L21.6126 19.3939C23.1268 17.4136 24.0369 14.9485 24.0369 12.2685C24.0369 5.77855 18.7584 0.5 12.2685 0.5C5.77855 0.5 0.5 5.77855 0.5 12.2685C0.5 18.7584 5.77855 24.0369 12.2685 24.0369C14.9485 24.0369 17.4136 23.1268 19.3939 21.6126L25.2812 27.5L27.5 25.2812Z" fill="#5F6369"/>
</svg>
