<svg width="48" height="48" viewBox="0 0 48 48" fill="none" xmlns="http://www.w3.org/2000/svg">
<path fill-rule="evenodd" clip-rule="evenodd" d="M36.857 18.4457C34.8409 20.4638 31.5709 20.4638 29.5548 18.4457C27.5367 16.4296 27.5367 13.1596 29.5548 11.1435L33.8948 6.80148C32.5397 6.29126 31.0772 6 29.5425 6C22.6989 6 17.1484 11.5484 17.1484 18.394C17.1484 19.9268 17.4418 21.3913 17.9499 22.7464L7.51207 33.1842C5.49598 35.2003 5.49598 38.4703 7.51207 40.4864C9.53023 42.5045 12.8002 42.5045 14.8163 40.4864L25.283 30.0196C26.6133 30.5071 28.0428 30.7881 29.5425 30.7881C36.386 30.7881 41.9365 25.2376 41.9365 18.394C41.9365 16.8944 41.6576 15.4649 41.1681 14.1346L36.857 18.4457Z" fill="#DADADA"/>
</svg>
