<svg width="48" height="48" viewBox="0 0 48 48" fill="none" xmlns="http://www.w3.org/2000/svg">
<path fill-rule="evenodd" clip-rule="evenodd" d="M18 23.98C14.686 23.98 12 21.296 12 17.98C12 14.664 14.686 11.98 18 11.98C21.314 11.98 24 14.664 24 17.98C24 21.296 21.314 23.98 18 23.98ZM18 27.98C22.34 27.98 26.34 29.054 30 31.154V41.98H6V31.154C9.66 29.054 13.66 27.98 18 27.98ZM38.3008 13.98H35.0168L32.0008 9.98L35.9808 6C38.5968 7.96 40.5368 10.76 41.4368 13.98C41.8008 15.26 42.0008 16.6 42.0008 17.98C42.0008 19.36 41.8008 20.7 41.4368 21.98C40.5368 25.22 38.5968 28 35.9808 29.96L32.0008 25.98L35.0168 21.98H38.3008C38.7408 20.72 39.0008 19.38 39.0008 17.98C39.0008 16.58 38.7408 15.24 38.3008 13.98Z" fill="#DADADA"/>
</svg>
